<svg width="27" height="32" viewBox="0 0 27 32" fill="none" xmlns="http://www.w3.org/2000/svg">
<path d="M20.2097 11.789C20.2097 20.7655 6.73657 20.7655 6.73657 11.789H10.1048C10.1048 16.2856 16.8414 16.2856 16.8414 11.789M26.9463 26.9463V31.9987H0V26.9463C0 22.4496 8.97647 20.2097 13.4731 20.2097C17.9698 20.2097 26.9463 22.4496 26.9463 26.9463ZM23.7464 26.9463C23.7464 25.8684 18.475 23.4096 13.4731 23.4096C8.47123 23.4096 3.19987 25.8684 3.19987 26.9463V28.7988H23.7464M14.3152 0C14.7868 0 15.1573 0.370511 15.1573 0.842071V5.89449H16.8414V1.68414C18.0333 2.23574 19.0319 3.13283 19.7076 4.259C20.3833 5.38517 20.7049 6.68844 20.6307 7.99967C20.6307 7.99967 21.8096 8.23545 21.8938 10.1048H5.05242C5.05242 8.23545 6.31553 7.99967 6.31553 7.99967C6.24135 6.68844 6.56297 5.38517 7.23868 4.259C7.91438 3.13283 8.91297 2.23574 10.1048 1.68414V5.89449H11.789V0.842071C11.789 0.370511 12.1595 0 12.6311 0" fill="white"/>
</svg>
