<svg width="33" height="33" viewBox="0 0 33 33" fill="none" xmlns="http://www.w3.org/2000/svg">
<path d="M18.1764 14.8228H26.5603L24.0452 12.3076L26.4262 9.92659L32.9992 16.4996L26.4262 23.0726L24.0452 20.6916L26.5603 18.1764H18.1764V26.5603L20.6916 24.0452L23.0726 26.4262L16.4996 32.9992L9.92659 26.4262L12.3076 24.0452L14.8228 26.5603V18.1764H6.43887L8.95405 20.6916L6.57301 23.0726L0 16.4996L6.57301 9.92659L8.95405 12.3076L6.43887 14.8228H14.8228V6.43887L12.3076 8.95405L9.92659 6.57301L16.4996 0L23.0726 6.57301L20.6916 8.95405L18.1764 6.43887V14.8228Z" fill="white"/>
</svg>
