<svg width="37" height="30" viewBox="0 0 37 30" fill="none" xmlns="http://www.w3.org/2000/svg">
<path d="M30 15H26.6667V20H21.6667V23.3333H30V15ZM10 10H15V6.66667H6.66667V15H10V10ZM33.3333 0H3.33333C2.44928 0 1.60143 0.351189 0.976311 0.976311C0.35119 1.60143 0 2.44928 0 3.33333V26.6667C0 27.5507 0.35119 28.3986 0.976311 29.0237C1.60143 29.6488 2.44928 30 3.33333 30H33.3333C34.2174 30 35.0652 29.6488 35.6904 29.0237C36.3155 28.3986 36.6667 27.5507 36.6667 26.6667V3.33333C36.6667 2.44928 36.3155 1.60143 35.6904 0.976311C35.0652 0.351189 34.2174 0 33.3333 0ZM33.3333 26.6667H3.33333V3.33333H33.3333V26.6667Z" fill="#060606"/>
</svg>
