<svg width="30" height="30" viewBox="0 0 30 30" fill="none" xmlns="http://www.w3.org/2000/svg">
<path d="M26.6667 23.3333H30V20H26.6667M26.6667 30H30V26.6667H26.6667M16.6667 0H13.3333V13.3333H0V16.6667H13.3333V30H16.6667V16.6667H30V13.3333H16.6667M20 30H23.3333V26.6667H20M26.6667 3.33333H30V0H26.6667M26.6667 10H30V6.66667H26.6667M23.3333 0H20V3.33333H23.3333M3.33333 0H0V3.33333H3.33333M10 0H6.66667V3.33333H10M0 23.3333H3.33333V20H0M3.33333 6.66667H0V10H3.33333M6.66667 30H10V26.6667H6.66667M0 30H3.33333V26.6667H0V30Z" fill="#060606"/>
</svg>
