<svg width="34" height="27" viewBox="0 0 34 27" fill="none" xmlns="http://www.w3.org/2000/svg">
<path d="M0 24.4693V9.28148C0 8.57833 0.246381 7.98094 0.739143 7.48931C1.2319 6.99767 1.82929 6.75129 2.53131 6.75016H5.06262V2.53131C5.06262 1.82817 5.309 1.23078 5.80177 0.739143C6.29453 0.247506 6.89192 0.00112503 7.59394 0H12.6566C13.3597 0 13.9577 0.246381 14.4504 0.739143C14.9432 1.23191 15.189 1.82929 15.1879 2.53131V6.75016H18.563V2.53131C18.563 1.82817 18.8093 1.23078 19.3021 0.739143C19.7949 0.247506 20.3922 0.00112503 21.0943 0H26.1569C26.86 0 27.458 0.246381 27.9507 0.739143C28.4435 1.23191 28.6893 1.82929 28.6882 2.53131V6.75016H31.2195C31.9227 6.75016 32.5206 6.99655 33.0134 7.48931C33.5061 7.98207 33.7519 8.57946 33.7508 9.28148V24.4693C33.7508 25.1725 33.505 25.7704 33.0134 26.2632C32.5217 26.756 31.9238 27.0018 31.2195 27.0007H2.53131C1.82817 27.0007 1.23078 26.7548 0.739143 26.2632C0.247506 25.7716 0.00112503 25.1736 0 24.4693ZM3.37508 23.6256H30.3757V10.1252H3.37508V23.6256ZM8.43771 6.75016H11.8128V3.37508H8.43771V6.75016ZM21.938 6.75016H25.3131V3.37508H21.938V6.75016Z" fill="#060606"/>
</svg>
