<svg width="37" height="37" viewBox="0 0 37 37" fill="none" xmlns="http://www.w3.org/2000/svg">
<path d="M13.4541 5.04528L17.6585 14.2949L26.9081 18.4993L17.6585 22.7037L13.4541 31.9534L9.24967 22.7037L0 18.4993L9.24967 14.2949L13.4541 5.04528ZM13.4541 13.1682L11.7723 16.8176L8.12289 18.4993L11.7723 20.1811L13.4541 23.8305L15.1358 20.1811L18.7852 18.4993L15.1358 16.8176L13.4541 13.1682ZM30.2717 13.4541L28.1526 8.84605L23.5446 6.72703L28.1526 4.62484L30.2717 0L32.3739 4.62484L36.9987 6.72703L32.3739 8.84605L30.2717 13.4541ZM30.2717 36.9987L28.1526 32.3907L23.5446 30.2717L28.1526 28.1695L30.2717 23.5446L32.3739 28.1695L36.9987 30.2717L32.3739 32.3907L30.2717 36.9987Z" fill="white"/>
</svg>
