<svg width="14" height="11" viewBox="0 0 14 11" fill="none" xmlns="http://www.w3.org/2000/svg">
<path d="M13.7348 3.46719C13.8414 3.38242 14 3.46172 14 3.5957V9.1875C14 9.91211 13.4121 10.5 12.6875 10.5H1.3125C0.587891 10.5 0 9.91211 0 9.1875V3.59844C0 3.46172 0.155859 3.38516 0.265234 3.46992C0.877734 3.9457 1.68984 4.55 4.47891 6.57617C5.05586 6.99727 6.0293 7.8832 7 7.87773C7.97617 7.88594 8.96875 6.98086 9.52383 6.57617C12.3129 4.55 13.1223 3.94297 13.7348 3.46719ZM7 7C7.63438 7.01094 8.54766 6.20156 9.00703 5.86797C12.6355 3.23477 12.9117 3.00508 13.7484 2.34883C13.907 2.22578 14 2.03437 14 1.83203V1.3125C14 0.587891 13.4121 0 12.6875 0H1.3125C0.587891 0 0 0.587891 0 1.3125V1.83203C0 2.03437 0.0929687 2.22305 0.251563 2.34883C1.08828 3.00234 1.36445 3.23477 4.99297 5.86797C5.45234 6.20156 6.36562 7.01094 7 7Z" fill="#E3E2DE"/>
</svg>
