<svg width="17" height="17" viewBox="0 0 17 17" fill="none" xmlns="http://www.w3.org/2000/svg">
<path d="M8.50033 0C3.82515 0 0 3.81665 0 8.51733C0 12.7675 3.11112 16.2951 7.17428 16.9327V10.9824H5.0152V8.51733H7.17428V6.63876C7.17428 4.50518 8.44083 3.33213 10.3874 3.33213C11.3139 3.33213 12.283 3.49364 12.283 3.49364V5.59322H11.2119C10.1579 5.59322 9.82638 6.24774 9.82638 6.91927V8.51733H12.1895L11.807 10.9824H9.82638V16.9327C11.8294 16.6163 13.6534 15.5943 14.969 14.0511C16.2846 12.5079 17.0052 10.5452 17.0007 8.51733C17.0007 3.81665 13.1755 0 8.50033 0Z" fill="#060606"/>
</svg>
