<svg width="17" height="17" viewBox="0 0 17 17" fill="none" xmlns="http://www.w3.org/2000/svg">
<path d="M4.93019 0H12.0705C14.7906 0 17.0007 2.21009 17.0007 4.93019V12.0705C17.0007 13.378 16.4812 14.6321 15.5566 15.5566C14.6321 16.4812 13.378 17.0007 12.0705 17.0007H4.93019C2.21009 17.0007 0 14.7906 0 12.0705V4.93019C0 3.62262 0.51943 2.36861 1.44402 1.44402C2.36861 0.51943 3.62262 0 4.93019 0ZM4.76019 1.70007C3.94859 1.70007 3.17024 2.02247 2.59635 2.59635C2.02247 3.17024 1.70007 3.94859 1.70007 4.76019V12.2405C1.70007 13.932 3.06862 15.3006 4.76019 15.3006H12.2405C13.0521 15.3006 13.8304 14.9782 14.4043 14.4043C14.9782 13.8304 15.3006 13.0521 15.3006 12.2405V4.76019C15.3006 3.06862 13.932 1.70007 12.2405 1.70007H4.76019ZM12.963 2.97512C13.2448 2.97512 13.5151 3.08706 13.7143 3.28633C13.9136 3.48559 14.0255 3.75585 14.0255 4.03766C14.0255 4.31946 13.9136 4.58972 13.7143 4.78899C13.5151 4.98825 13.2448 5.1002 12.963 5.1002C12.6812 5.1002 12.4109 4.98825 12.2117 4.78899C12.0124 4.58972 11.9005 4.31946 11.9005 4.03766C11.9005 3.75585 12.0124 3.48559 12.2117 3.28633C12.4109 3.08706 12.6812 2.97512 12.963 2.97512ZM8.50033 4.25017C9.62755 4.25017 10.7086 4.69795 11.5057 5.49501C12.3027 6.29207 12.7505 7.37312 12.7505 8.50033C12.7505 9.62755 12.3027 10.7086 11.5057 11.5057C10.7086 12.3027 9.62755 12.7505 8.50033 12.7505C7.37312 12.7505 6.29207 12.3027 5.49501 11.5057C4.69795 10.7086 4.25017 9.62755 4.25017 8.50033C4.25017 7.37312 4.69795 6.29207 5.49501 5.49501C6.29207 4.69795 7.37312 4.25017 8.50033 4.25017ZM8.50033 5.95023C7.824 5.95023 7.17538 6.2189 6.69714 6.69714C6.2189 7.17538 5.95023 7.824 5.95023 8.50033C5.95023 9.17666 6.2189 9.82529 6.69714 10.3035C7.17538 10.7818 7.824 11.0504 8.50033 11.0504C9.17666 11.0504 9.82529 10.7818 10.3035 10.3035C10.7818 9.82529 11.0504 9.17666 11.0504 8.50033C11.0504 7.824 10.7818 7.17538 10.3035 6.69714C9.82529 6.2189 9.17666 5.95023 8.50033 5.95023Z" fill="#060606"/>
</svg>
