<svg width="30" height="37" viewBox="0 0 30 37" fill="none" xmlns="http://www.w3.org/2000/svg">
<path d="M26.6667 3.33333V33.3333H16.6667V27.5H13.3333V33.3333H3.33333V3.33333H26.6667ZM20 10H23.3333V6.66667H20V10ZM13.3333 10H16.6667V6.66667H13.3333V10ZM6.66667 10H10V6.66667H6.66667V10ZM20 16.6667H23.3333V13.3333H20V16.6667ZM13.3333 16.6667H16.6667V13.3333H13.3333V16.6667ZM6.66667 16.6667H10V13.3333H6.66667V16.6667ZM20 23.3333H23.3333V20H20V23.3333ZM13.3333 23.3333H16.6667V20H13.3333V23.3333ZM6.66667 23.3333H10V20H6.66667V23.3333ZM20 30H23.3333V26.6667H20V30ZM6.66667 30H10V26.6667H6.66667V30ZM30 0H0V36.6667H30V0Z" fill="white"/>
</svg>
