<svg width="12" height="12" viewBox="0 0 12 12" fill="none" xmlns="http://www.w3.org/2000/svg">
<path d="M11.3333 8.33333C10.5333 8.33333 9.66667 8.2 8.93333 7.93333H8.73333C8.53333 7.93333 8.4 8 8.26667 8.13333L6.8 9.6C4.93333 8.6 3.33333 7.06667 2.4 5.2L3.86667 3.73333C4.06667 3.53333 4.13333 3.26667 4 3.06667C3.8 2.33333 3.66667 1.46667 3.66667 0.666667C3.66667 0.333333 3.33333 0 3 0H0.666667C0.333333 0 0 0.333333 0 0.666667C0 6.93333 5.06667 12 11.3333 12C11.6667 12 12 11.6667 12 11.3333V9C12 8.66667 11.6667 8.33333 11.3333 8.33333ZM1.33333 1.33333H2.33333C2.4 1.93333 2.53333 2.53333 2.66667 3.06667L1.86667 3.86667C1.6 3.06667 1.4 2.2 1.33333 1.33333ZM10.6667 10.6667C9.8 10.6 8.93333 10.4 8.13333 10.1333L8.93333 9.33333C9.46667 9.46667 10.0667 9.6 10.6667 9.6V10.6667Z" fill="#FAFAFA"/>
</svg>
